bicep_curl
version=1
nRows=220
nColumns=3
inDegrees=yes

# SIMM Motion File Header:
name bicep_curl
datacolumns 3
datarows 220
otherdata 1
range 0.0000 0.2190
endheader
time	/jointset/r_shoulder/r_shoulder_elev/value	/jointset/r_elbow/r_elbow_flex/value
0.0000	0.0000	129.2200
0.0010	0.0000	129.0342
0.0020	0.0000	128.8483
0.0030	0.0000	128.6625
0.0040	0.0000	128.4767
0.0050	0.0000	128.2909
0.0060	0.0000	128.1050
0.0070	0.0000	127.9192
0.0080	0.0000	127.7334
0.0090	0.0000	127.5476
0.0100	0.0000	127.3617
0.0110	0.0000	127.1759
0.0120	0.0000	126.9901
0.0130	0.0000	126.8043
0.0140	0.0000	126.6184
0.0150	0.0000	126.4326
0.0160	0.0000	126.2468
0.0170	0.0000	126.0610
0.0180	0.0000	125.8751
0.0190	0.0000	125.6893
0.0200	0.0000	125.5035
0.0210	0.0000	125.3177
0.0220	0.0000	125.1318
0.0230	0.0000	124.9460
0.0240	0.0000	124.7602
0.0250	0.0000	124.5744
0.0260	0.0000	124.3885
0.0270	0.0000	124.2027
0.0280	0.0000	124.0169
0.0290	0.0000	123.8311
0.0300	0.0000	123.6452
0.0310	0.0000	123.4594
0.0320	0.0000	123.2736
0.0330	0.0000	123.0877
0.0340	0.0000	122.9019
0.0350	0.0000	122.7161
0.0360	0.0000	122.5303
0.0370	0.0000	122.3444
0.0380	0.0000	122.1586
0.0390	0.0000	121.9728
0.0400	0.0000	121.7870
0.0410	0.0000	121.6011
0.0420	0.0000	121.4153
0.0430	0.0000	121.2295
0.0440	0.0000	121.0437
0.0450	0.0000	120.8578
0.0460	0.0000	120.6720
0.0470	0.0000	120.4862
0.0480	0.0000	120.3004
0.0490	0.0000	120.1145
0.0500	0.0000	119.9287
0.0510	0.0000	119.7429
0.0520	0.0000	119.5571
0.0530	0.0000	119.3712
0.0540	0.0000	119.1854
0.0550	0.0000	118.9996
0.0560	0.0000	118.8138
0.0570	0.0000	118.6279
0.0580	0.0000	118.4421
0.0590	0.0000	118.2563
0.0600	0.0000	118.0705
0.0610	0.0000	117.8846
0.0620	0.0000	117.6988
0.0630	0.0000	117.5130
0.0640	0.0000	117.3271
0.0650	0.0000	117.1413
0.0660	0.0000	116.9555
0.0670	0.0000	116.7697
0.0680	0.0000	116.5838
0.0690	0.0000	116.3980
0.0700	0.0000	116.2122
0.0710	0.0000	116.0264
0.0720	0.0000	115.8405
0.0730	0.0000	115.6547
0.0740	0.0000	115.4689
0.0750	0.0000	115.2831
0.0760	0.0000	115.0972
0.0770	0.0000	114.9114
0.0780	0.0000	114.7256
0.0790	0.0000	114.5398
0.0800	0.0000	114.3539
0.0810	0.0000	114.1681
0.0820	0.0000	113.9823
0.0830	0.0000	113.7965
0.0840	0.0000	113.6106
0.0850	0.0000	113.4248
0.0860	0.0000	113.2390
0.0870	0.0000	113.0532
0.0880	0.0000	112.8673
0.0890	0.0000	112.6815
0.0900	0.0000	112.4957
0.0910	0.0000	112.3098
0.0920	0.0000	112.1240
0.0930	0.0000	111.9382
0.0940	0.0000	111.7524
0.0950	0.0000	111.5665
0.0960	0.0000	111.3807
0.0970	0.0000	111.1949
0.0980	0.0000	111.0091
0.0990	0.0000	110.8232
0.1000	0.0000	110.6374
0.1010	0.0000	110.4516
0.1020	0.0000	110.2658
0.1030	0.0000	110.0799
0.1040	0.0000	109.8941
0.1050	0.0000	109.7083
0.1060	0.0000	109.5225
0.1070	0.0000	109.3366
0.1080	0.0000	109.1508
0.1090	0.0000	108.9650
0.1100	0.0000	108.7792
0.1110	0.0000	108.5933
0.1120	0.0000	108.4075
0.1130	0.0000	108.2217
0.1140	0.0000	108.0359
0.1150	0.0000	107.8500
0.1160	0.0000	107.6642
0.1170	0.0000	107.4784
0.1180	0.0000	107.2926
0.1190	0.0000	107.1067
0.1200	0.0000	106.9209
0.1210	0.0000	106.7351
0.1220	0.0000	106.5492
0.1230	0.0000	106.3634
0.1240	0.0000	106.1776
0.1250	0.0000	105.9918
0.1260	0.0000	105.8059
0.1270	0.0000	105.6201
0.1280	0.0000	105.4343
0.1290	0.0000	105.2485
0.1300	0.0000	105.0626
0.1310	0.0000	104.8768
0.1320	0.0000	104.6910
0.1330	0.0000	104.5052
0.1340	0.0000	104.3193
0.1350	0.0000	104.1335
0.1360	0.0000	103.9477
0.1370	0.0000	103.7619
0.1380	0.0000	103.5760
0.1390	0.0000	103.3902
0.1400	0.0000	103.2044
0.1410	0.0000	103.0186
0.1420	0.0000	102.8327
0.1430	0.0000	102.6469
0.1440	0.0000	102.4611
0.1450	0.0000	102.2753
0.1460	0.0000	102.0894
0.1470	0.0000	101.9036
0.1480	0.0000	101.7178
0.1490	0.0000	101.5320
0.1500	0.0000	101.3461
0.1510	0.0000	101.1603
0.1520	0.0000	100.9745
0.1530	0.0000	100.7886
0.1540	0.0000	100.6028
0.1550	0.0000	100.4170
0.1560	0.0000	100.2312
0.1570	0.0000	100.0453
0.1580	0.0000	99.8595
0.1590	0.0000	99.6737
0.1600	0.0000	99.4879
0.1610	0.0000	99.3020
0.1620	0.0000	99.1162
0.1630	0.0000	98.9304
0.1640	0.0000	98.7446
0.1650	0.0000	98.5587
0.1660	0.0000	98.3729
0.1670	0.0000	98.1871
0.1680	0.0000	98.0013
0.1690	0.0000	97.8154
0.1700	0.0000	97.6296
0.1710	0.0000	97.4438
0.1720	0.0000	97.2580
0.1730	0.0000	97.0721
0.1740	0.0000	96.8863
0.1750	0.0000	96.7005
0.1760	0.0000	96.5147
0.1770	0.0000	96.3288
0.1780	0.0000	96.1430
0.1790	0.0000	95.9572
0.1800	0.0000	95.7714
0.1810	0.0000	95.5855
0.1820	0.0000	95.3997
0.1830	0.0000	95.2139
0.1840	0.0000	95.0280
0.1850	0.0000	94.8422
0.1860	0.0000	94.6564
0.1870	0.0000	94.4706
0.1880	0.0000	94.2847
0.1890	0.0000	94.0989
0.1900	0.0000	93.9131
0.1910	0.0000	93.7273
0.1920	0.0000	93.5414
0.1930	0.0000	93.3556
0.1940	0.0000	93.1698
0.1950	0.0000	92.9840
0.1960	0.0000	92.7981
0.1970	0.0000	92.6123
0.1980	0.0000	92.4265
0.1990	0.0000	92.2407
0.2000	0.0000	92.0548
0.2010	0.0000	91.8690
0.2020	0.0000	91.6832
0.2030	0.0000	91.4974
0.2040	0.0000	91.3115
0.2050	0.0000	91.1257
0.2060	0.0000	90.9399
0.2070	0.0000	90.7541
0.2080	0.0000	90.5682
0.2090	0.0000	90.3824
0.2100	0.0000	90.1966
0.2110	0.0000	90.0108
0.2120	0.0000	89.8249
0.2130	0.0000	89.6391
0.2140	0.0000	89.4533
0.2150	0.0000	89.2674
0.2160	0.0000	89.0816
0.2170	0.0000	88.8958
0.2180	0.0000	88.7100
0.2190	0.0000	88.5241
